<svg width="13" height="12" viewBox="0 0 13 12" fill="none" xmlns="http://www.w3.org/2000/svg">
<path d="M12.9963 6C12.9963 6.47339 12.6125 6.85714 12.1391 6.85714H7.85342V11.1429C7.85342 11.6162 7.46966 12 6.99628 12C6.52289 12 6.13913 11.6162 6.13913 11.1429V6.85714H1.85342C1.38003 6.85714 0.996277 6.47339 0.996277 6C0.996277 5.52661 1.38003 5.14286 1.85342 5.14286H6.13913V0.857144C6.13913 0.383757 6.52289 0 6.99628 0C7.46966 0 7.85342 0.383756 7.85342 0.857143V5.14286H12.1391C12.6125 5.14286 12.9963 5.52661 12.9963 6Z" fill="#894083"/>
</svg>
