<svg width="30" height="32" viewBox="0 0 30 32" fill="none" xmlns="http://www.w3.org/2000/svg">
<path fill-rule="evenodd" clip-rule="evenodd" d="M1.16346 0.379822C0.589935 0.379822 0.125 0.844757 0.125 1.41828C0.125 1.99181 0.589935 2.45674 1.16346 2.45674H5.31731C6.27319 2.45674 7.04808 3.23164 7.04808 4.18751V22.2308C7.04808 22.8043 7.51301 23.2692 8.08654 23.2692H25.2727C26.564 23.2692 27.7673 22.6148 28.4691 21.5308L28.9282 20.8216C29.9719 19.2094 28.8147 17.0817 26.8941 17.0817H12.1971C11.6236 17.0817 11.1587 17.5467 11.1587 18.1202C11.1587 18.6937 11.6236 19.1587 12.1971 19.1587H26.8941C27.1685 19.1587 27.3338 19.4626 27.1847 19.6929L26.7256 20.4021C26.4066 20.8948 25.8597 21.1923 25.2727 21.1923H9.125V4.18751C9.125 2.08458 7.42024 0.379822 5.31731 0.379822H1.16346ZM10.0769 25.3462C8.35634 25.3462 6.96154 26.741 6.96154 28.4616C6.96154 30.1821 8.35634 31.5769 10.0769 31.5769C11.7975 31.5769 13.1923 30.1821 13.1923 28.4616C13.1923 26.741 11.7975 25.3462 10.0769 25.3462ZM25.3077 25.3462C23.5871 25.3462 22.1923 26.741 22.1923 28.4616C22.1923 30.1821 23.5871 31.5769 25.3077 31.5769C27.0283 31.5769 28.4231 30.1821 28.4231 28.4616C28.4231 26.741 27.0283 25.3462 25.3077 25.3462ZM9.03846 28.4616C9.03846 27.888 9.5034 27.4231 10.0769 27.4231C10.6504 27.4231 11.1154 27.888 11.1154 28.4616C11.1154 29.0351 10.6504 29.5 10.0769 29.5C9.5034 29.5 9.03846 29.0351 9.03846 28.4616ZM24.2692 28.4616C24.2692 27.888 24.7342 27.4231 25.3077 27.4231C25.8812 27.4231 26.3462 27.888 26.3462 28.4616C26.3462 29.0351 25.8812 29.5 25.3077 29.5C24.7342 29.5 24.2692 29.0351 24.2692 28.4616Z" fill="#894083"/>
</svg>
