<svg width="18" height="17" viewBox="0 0 18 17" fill="none" xmlns="http://www.w3.org/2000/svg">
<path fill-rule="evenodd" clip-rule="evenodd" d="M1.93286 0.720758C1.77678 0.564679 1.52373 0.564679 1.36765 0.720758C1.21157 0.876837 1.21157 1.12989 1.36765 1.28597L8.43512 8.35345L1.36755 15.421C1.21147 15.5771 1.21147 15.8302 1.36755 15.9862C1.52363 16.1423 1.77668 16.1423 1.93276 15.9862L9.00034 8.91866L16.0679 15.9862C16.224 16.1423 16.477 16.1423 16.6331 15.9862C16.7892 15.8302 16.7892 15.5771 16.6331 15.421L9.56555 8.35345L16.633 1.28598C16.7891 1.1299 16.7891 0.876842 16.633 0.720763C16.4769 0.564683 16.2239 0.564683 16.0678 0.720763L9.00034 7.78824L1.93286 0.720758ZM1.01409 0.367205C1.36544 0.0158632 1.93507 0.0158636 2.28641 0.367205L9.00034 7.08113L15.7143 0.367209C16.0656 0.0158679 16.6352 0.0158679 16.9866 0.367209C17.3379 0.718551 17.3379 1.28819 16.9866 1.63953L10.2727 8.35345L16.9867 15.0675C17.338 15.4188 17.338 15.9884 16.9867 16.3398C16.6353 16.6911 16.0657 16.6911 15.7144 16.3398L9.00034 9.62577L2.28631 16.3398C1.93497 16.6911 1.36534 16.6911 1.01399 16.3398C0.662653 15.9885 0.662653 15.4188 1.01399 15.0675L7.72802 8.35345L1.01409 1.63952C0.662753 1.28818 0.662753 0.718546 1.01409 0.367205Z" fill="#894083"/>
</svg>
