<svg width="17" height="16" viewBox="0 0 17 16" fill="none" xmlns="http://www.w3.org/2000/svg">
<path fill-rule="evenodd" clip-rule="evenodd" d="M0 3C0 1.34315 1.34315 0 3 0L9 0C9.55229 0 10 0.447715 10 1C10 1.55228 9.55229 2 9 2L3 2C2.44772 2 2 2.44772 2 3L2 13C2 13.5523 2.44772 14 3 14L9 14C9.55229 14 10 14.4477 10 15C10 15.5523 9.55229 16 9 16L3 16C1.34315 16 0 14.6569 0 13L0 3Z" fill="white"/>
<path fill-rule="evenodd" clip-rule="evenodd" d="M10.804 3.80455C11.1946 3.41402 11.8277 3.41402 12.2182 3.80455L16.4137 8L12.2182 12.1955C11.8277 12.586 11.1946 12.586 10.804 12.1955C10.4135 11.8049 10.4135 11.1718 10.804 10.7812L12.5853 9H6.00003C5.44774 9 5.00003 8.55229 5.00003 8C5.00003 7.44772 5.44774 7 6.00003 7L12.5853 7L10.804 5.21876C10.4135 4.82824 10.4135 4.19507 10.804 3.80455Z" fill="white"/>
</svg>
