<svg width="24" height="21" viewBox="0 0 24 21" fill="none" xmlns="http://www.w3.org/2000/svg">
<path d="M0.916992 6.95833C0.916992 3.4836 3.65059 0.75 7.12533 0.75C8.36989 0.75 9.58006 1.11731 10.6108 1.75224C10.9074 1.93496 11.1894 2.13999 11.4533 2.36507C11.6457 2.52911 11.8285 2.70384 12.0003 2.88839C12.1722 2.70384 12.355 2.52911 12.5473 2.36507C12.8112 2.13999 13.0932 1.93496 13.3899 1.75224C14.4206 1.11731 15.6308 0.75 16.8753 0.75C20.3501 0.75 23.0837 3.4836 23.0837 6.95833C23.0837 9.0825 22.1285 10.9911 20.5007 12.9864C18.8784 14.9749 16.5622 17.0798 13.7955 19.5939L13.7393 19.645L13.5138 19.8488C12.6547 20.6249 11.3469 20.6224 10.4908 19.843L10.2616 19.6344L10.2504 19.6242C7.37501 17.1579 5.04663 15.0479 3.4378 13.0368C1.82573 11.0216 0.916992 9.08225 0.916992 6.95833Z" fill="#894083"/>
</svg>
