<svg width="151" height="24" viewBox="0 0 151 24" fill="none" xmlns="http://www.w3.org/2000/svg">
<path d="M46.5655 6.67524V6.69002C46.5655 7.10391 46.2256 7.44388 45.8117 7.44388H42.1311C41.8207 7.44388 41.5398 7.50301 41.259 7.60648C40.9929 7.70995 40.7416 7.85776 40.5495 8.03514C40.3425 8.2273 40.1947 8.43424 40.0764 8.68553C39.9582 8.93681 39.8991 9.20288 39.8991 9.46894C39.8991 9.74979 39.9582 10.0011 40.0764 10.2524C40.1947 10.4889 40.3425 10.7106 40.5495 10.888C40.7564 11.0801 40.9929 11.2132 41.259 11.3166C41.525 11.4201 41.8207 11.4792 42.1311 11.4792H43.3136C43.8457 11.4792 44.3483 11.5679 44.8361 11.7601C45.3091 11.9522 45.723 12.2035 46.0777 12.5287C46.4325 12.8539 46.6986 13.2234 46.9055 13.6669C47.1124 14.0956 47.2159 14.5538 47.2159 15.0416C47.2159 15.5294 47.1124 15.9876 46.9055 16.4162C46.6986 16.8449 46.4325 17.2292 46.0777 17.5396C45.723 17.8648 45.3091 18.1161 44.8361 18.2935C44.3631 18.4857 43.8605 18.5743 43.3136 18.5743H39.6034C39.1896 18.5743 38.8496 18.2344 38.8496 17.8205C38.8496 17.4066 39.1896 17.0666 39.6034 17.0666H43.3136C43.624 17.0666 43.9049 17.0075 44.1857 16.904C44.4518 16.8006 44.6883 16.6527 44.8952 16.4754C45.0874 16.298 45.25 16.0763 45.3682 15.825C45.4865 15.5737 45.5456 15.3076 45.5456 15.0416C45.5456 14.7755 45.4865 14.4947 45.3682 14.2581C45.25 14.0069 45.0874 13.7999 44.8952 13.6078C44.7031 13.4156 44.4666 13.2826 44.1857 13.1791C43.9196 13.0756 43.624 13.0165 43.3136 13.0165H42.1311C41.5989 13.0165 41.0964 12.9278 40.6234 12.7357C40.1504 12.5583 39.7365 12.307 39.3817 11.9818C39.027 11.6714 38.7461 11.2871 38.5392 10.8584C38.3322 10.4297 38.2288 9.97151 38.2288 9.48373C38.2288 8.98115 38.3322 8.52293 38.5392 8.09427C38.7461 7.6656 39.027 7.29607 39.3817 6.97087C39.7365 6.64568 40.1504 6.39439 40.6234 6.20223C41.0964 6.02486 41.5989 5.92139 42.1311 5.92139H45.8117C46.2256 5.92139 46.5655 6.26136 46.5655 6.67524Z" fill="#894083"/>
<path d="M58.3464 11.2427C58.8046 11.2427 59.1741 11.6123 59.1741 12.0705V12.4253C59.1741 12.8835 58.8046 13.253 58.3464 13.253C57.8882 13.253 57.5186 12.8835 57.5186 12.4253V12.0705C57.5186 11.6123 57.8882 11.2427 58.3464 11.2427Z" fill="#894083"/>
<path d="M71.5167 5.93616C71.9749 5.93616 72.3444 6.30569 72.3444 6.76392V17.0518H79.0405C79.4543 17.0518 79.7943 17.3918 79.7943 17.8057C79.7943 18.2196 79.4543 18.5595 79.0405 18.5595H71.2654C70.9402 18.5595 70.6741 18.2935 70.6741 17.9683V6.76392C70.6889 6.30569 71.0585 5.93616 71.5167 5.93616Z" fill="#894083"/>
<path d="M92.1813 11.2427C92.6395 11.2427 93.009 11.6123 93.009 12.0705V12.4253C93.009 12.8835 92.6395 13.253 92.1813 13.253C91.723 13.253 91.3535 12.8835 91.3535 12.4253V12.0705C91.3387 11.6123 91.723 11.2427 92.1813 11.2427Z" fill="#894083"/>
<path d="M105.1 14.066V17.8057C105.1 18.2639 104.731 18.6482 104.258 18.6482C103.799 18.6482 103.415 18.2787 103.415 17.8057V10.4741C103.415 9.83846 103.548 9.2472 103.814 8.68551C104.08 8.12381 104.45 7.63602 104.893 7.22214C105.352 6.80826 105.884 6.48307 106.504 6.23178C107.125 5.99528 107.79 5.86224 108.5 5.86224C109.195 5.86224 109.86 5.9805 110.466 6.23178C111.087 6.46828 111.619 6.80826 112.077 7.22214C112.535 7.63602 112.89 8.12381 113.156 8.68551C113.422 9.2472 113.555 9.83846 113.555 10.4741V17.8205C113.555 18.2787 113.186 18.6482 112.727 18.6482C112.269 18.6482 111.9 18.2787 111.9 17.8205V14.066H105.1ZM111.915 10.4593C111.915 10.0306 111.826 9.63152 111.648 9.26199C111.471 8.89245 111.22 8.55247 110.909 8.27163C110.599 7.99078 110.229 7.76906 109.83 7.60646C109.416 7.44386 108.973 7.36996 108.5 7.36996C108.027 7.36996 107.584 7.44386 107.17 7.60646C106.756 7.76906 106.401 7.99078 106.091 8.27163C105.78 8.55247 105.529 8.87767 105.352 9.26199C105.174 9.63152 105.085 10.0454 105.085 10.4593V12.5583H111.915V10.4593Z" fill="#894083"/>
<path d="M127.391 11.2427C127.849 11.2427 128.219 11.6123 128.219 12.0705V12.4253C128.219 12.8835 127.849 13.253 127.391 13.253C126.933 13.253 126.563 12.8835 126.563 12.4253V12.0705C126.563 11.6123 126.933 11.2427 127.391 11.2427Z" fill="#894083"/>
<path d="M136.961 9.58705C136.961 9.09926 137.065 8.64103 137.272 8.21237C137.479 7.78371 137.745 7.41417 138.1 7.08897C138.454 6.76378 138.868 6.5125 139.341 6.32034C139.814 6.14296 140.317 6.03949 140.849 6.03949C141.47 6.03949 142.046 6.15774 142.578 6.40903C142.874 6.54206 143.155 6.71944 143.406 6.9116C143.717 7.1481 144.13 7.1481 144.441 6.9116C144.692 6.71944 144.958 6.55684 145.269 6.40903C145.801 6.17252 146.377 6.03949 146.998 6.03949C147.53 6.03949 148.033 6.12818 148.506 6.32034C148.979 6.5125 149.393 6.76378 149.747 7.08897C150.102 7.41417 150.383 7.78371 150.59 8.21237C150.797 8.64103 150.9 9.09926 150.9 9.58705V18.0125C150.9 18.4707 150.531 18.8403 150.073 18.8403H150.058C149.6 18.8403 149.23 18.4707 149.23 18.0125V9.58705C149.23 9.3062 149.171 9.04013 149.053 8.80363C148.934 8.55234 148.787 8.3454 148.58 8.16802C148.373 7.99065 148.136 7.84283 147.87 7.73936C147.604 7.63589 147.323 7.57676 147.013 7.57676C146.702 7.57676 146.422 7.63589 146.141 7.73936C145.875 7.84283 145.623 7.99065 145.431 8.16802C145.224 8.3454 145.062 8.56712 144.958 8.80363C144.84 9.05491 144.781 9.32098 144.781 9.58705V18.0125C144.781 18.4707 144.411 18.8403 143.953 18.8403H143.938C143.48 18.8403 143.111 18.4707 143.111 18.0125V9.58705C143.111 9.3062 143.051 9.04013 142.933 8.80363C142.815 8.55234 142.667 8.3454 142.46 8.16802C142.253 7.99065 142.017 7.84283 141.751 7.73936C141.485 7.63589 141.189 7.57676 140.879 7.57676C140.568 7.57676 140.287 7.63589 140.006 7.73936C139.74 7.84283 139.489 7.99065 139.297 8.16802C139.09 8.3454 138.942 8.56712 138.824 8.80363C138.706 9.05491 138.647 9.32098 138.647 9.58705V18.0125C138.647 18.4707 138.277 18.8403 137.819 18.8403C137.361 18.8403 136.991 18.4707 136.991 18.0125V9.58705H136.961Z" fill="#894083"/>
<path d="M21.9987 10.2819C21.7031 10.2819 21.4666 10.0454 21.4666 9.7498C21.4666 5.5962 18.2147 2.21124 14.2384 2.21124C13.9428 2.21124 13.7063 1.97474 13.7063 1.67911C13.7063 1.38348 13.9428 1.14697 14.2384 1.14697C18.8059 1.14697 22.5309 5.00494 22.5309 9.73502C22.5309 10.0454 22.2943 10.2819 21.9987 10.2819Z" fill="#894083"/>
<path d="M18.6729 10.2819C18.3773 10.2819 18.1407 10.0454 18.1407 9.74979C18.1407 7.63604 16.3965 5.92138 14.2384 5.92138C13.9428 5.92138 13.7063 5.68488 13.7063 5.38925C13.7063 5.09362 13.9428 4.85712 14.2384 4.85712C16.973 4.85712 19.1902 7.04478 19.1902 9.74979C19.205 10.0454 18.9685 10.2819 18.6729 10.2819Z" fill="#894083"/>
<path d="M15.4505 10.1933C15.2288 10.1342 15.081 9.89765 15.0958 9.66115C15.1254 9.29161 14.8002 8.90729 14.3124 8.90729C14.1054 8.90729 13.9133 8.75948 13.8541 8.55254C13.7507 8.183 14.0315 7.85781 14.3567 7.88737C15.3619 7.96128 16.1305 8.80382 16.0566 9.73505C16.0418 10.0455 15.7462 10.282 15.4505 10.1933Z" fill="#894083"/>
<path d="M11.5778 23.8513C18.0225 23.8513 23.2551 18.6187 23.2551 12.174C23.2551 11.967 23.0778 11.8044 22.8856 11.8044H12.6125H12.3021V11.4497V1.93039C12.3168 1.93039 12.2873 1.93039 12.3021 1.93039L12.3168 0.880901C12.3168 0.67396 12.1542 0.511364 11.9473 0.496582C11.8291 0.496582 11.7256 0.496582 11.5925 0.496582C5.13304 0.496582 -0.0996094 5.72923 -0.0996094 12.174C-0.0996094 18.6187 5.13304 23.8513 11.5778 23.8513ZM21.7474 13.6078C21.5109 15.2485 20.8901 16.771 19.9737 18.057C19.8554 18.2196 19.6337 18.2639 19.4711 18.1605C17.8599 17.1553 16.6774 15.5441 16.2635 13.6373C16.2192 13.4008 16.3965 13.1791 16.633 13.1791H21.3779C21.5996 13.1791 21.777 13.386 21.7474 13.6078ZM12.6568 13.1791H14.4306C14.6228 13.1791 14.7706 13.3121 14.8001 13.5043C15.1845 15.8545 16.5443 17.8944 18.4364 19.1804C18.6433 19.3134 18.6581 19.609 18.4807 19.7716C16.9139 21.1907 14.9184 22.1367 12.7012 22.3732C12.4794 22.4027 12.2873 22.2254 12.2873 22.0036V13.5634C12.2873 13.3565 12.4499 13.1791 12.6568 13.1791ZM1.79242 13.1791H6.62597C6.86247 13.1791 7.03985 13.4008 6.99551 13.6373C6.55206 15.5737 5.35476 17.1997 3.71401 18.2048C3.55142 18.3083 3.3297 18.2639 3.21144 18.1013C2.28021 16.8006 1.64461 15.2633 1.42288 13.6078C1.37854 13.386 1.55592 13.1791 1.79242 13.1791ZM10.4544 22.3732C8.26671 22.1367 6.27121 21.2054 4.71916 19.8012C4.54178 19.6386 4.55656 19.343 4.7635 19.2099C6.68509 17.924 8.05977 15.8693 8.44409 13.5043C8.47365 13.3269 8.63625 13.1791 8.81363 13.1791H10.4987C10.7057 13.1791 10.8683 13.3417 10.8683 13.5486V21.9889C10.8683 22.2254 10.6761 22.4027 10.4544 22.3732ZM10.8683 2.34427V11.3905C10.8683 11.5975 10.7057 11.7601 10.4987 11.7601H8.90232C8.71016 11.7601 8.54756 11.6123 8.53278 11.4201C8.32584 8.77422 6.90682 6.4683 4.83741 5.04928C4.63047 4.91625 4.61569 4.62062 4.79306 4.45802C6.34512 3.11291 8.29628 2.21123 10.4544 1.97473C10.6761 1.94517 10.8683 2.12255 10.8683 2.34427ZM3.77314 6.05442C5.59126 7.1926 6.86247 9.11419 7.09898 11.3462C7.12854 11.5679 6.95116 11.7601 6.72944 11.7601H1.71851C1.49679 11.7601 1.3342 11.5679 1.34898 11.3462C1.49679 9.40982 2.19152 7.62126 3.27057 6.12833C3.38882 5.9953 3.61054 5.95095 3.77314 6.05442Z" fill="#FF8600"/>
</svg>
