<svg width="24" height="21" viewBox="0 0 24 21" fill="none" xmlns="http://www.w3.org/2000/svg">
<path fill-rule="evenodd" clip-rule="evenodd" d="M7.12533 0.75C3.65059 0.75 0.916992 3.4836 0.916992 6.95833C0.916992 9.08225 1.82573 11.0216 3.4378 13.0368C5.04663 15.0479 7.37501 17.1579 10.2504 19.6242L10.2616 19.6344L10.4908 19.843C11.3469 20.6224 12.6547 20.6249 13.5138 19.8488L13.7393 19.645L13.7955 19.5939C16.5622 17.0798 18.8784 14.9749 20.5007 12.9864C22.1285 10.9911 23.0837 9.0825 23.0837 6.95833C23.0837 3.4836 20.3501 0.75 16.8753 0.75C15.6308 0.75 14.4206 1.11731 13.3899 1.75224C13.0932 1.93496 12.8112 2.13999 12.5473 2.36507C12.355 2.52911 12.1722 2.70384 12.0003 2.88839C11.8285 2.70384 11.6457 2.52911 11.4533 2.36507C11.1894 2.13999 10.9074 1.93496 10.6108 1.75224C9.58006 1.11731 8.36989 0.75 7.12533 0.75ZM2.41699 6.95833C2.41699 4.31202 4.47901 2.25 7.12533 2.25C8.07623 2.25 9.01602 2.53162 9.82407 3.02937C10.2889 3.31569 10.704 3.66992 11.0486 4.07459L12.0003 5.19217L12.952 4.07459C13.2966 3.66992 13.7118 3.31569 14.1766 3.02937C14.9846 2.53162 15.9244 2.25 16.8753 2.25C19.5216 2.25 21.5837 4.31202 21.5837 6.95833C21.5837 8.59111 20.8624 10.1701 19.3384 12.0382C17.8 13.9239 15.5759 15.9492 12.7733 18.4961L12.7326 18.533L12.5082 18.7357C12.2219 18.9944 11.7859 18.9936 11.5006 18.7338L11.2706 18.5245L11.2453 18.5014L11.2296 18.4879C8.34561 16.0143 6.11903 13.9873 4.60913 12.0998C3.11308 10.2296 2.41699 8.61372 2.41699 6.95833Z" fill="#894083"/>
</svg>
