<svg width="600" height="600" viewBox="0 0 600 600" fill="none" xmlns="http://www.w3.org/2000/svg">
<rect width="600" height="600" fill="white" fill-opacity="0.22"/>
<g clip-path="url(#clip0_62_10)">
<path d="M567.998 251.359C564.383 251.359 560.917 249.923 558.362 247.368C555.806 244.812 554.37 241.346 554.37 237.732C554.37 131.043 470.848 44.311 368.554 44.311C366.703 44.4163 364.849 44.1425 363.107 43.5063C361.365 42.8702 359.771 41.8851 358.422 40.6114C357.074 39.3376 356 37.8021 355.266 36.0988C354.532 34.3955 354.153 32.5603 354.153 30.7056C354.153 28.8509 354.532 27.0157 355.266 25.3124C356 23.6091 357.074 22.0735 358.422 20.7998C359.771 19.5261 361.365 18.541 363.107 17.9049C364.849 17.2687 366.703 16.9949 368.554 17.1002C486.014 17.1002 581.581 116.14 581.581 237.82C581.558 241.411 580.118 244.848 577.574 247.383C575.031 249.919 571.589 251.348 567.998 251.359Z" fill="#8B4184" fill-opacity="0.1"/>
<path d="M482.277 251.359C480.49 251.359 478.72 251.006 477.069 250.321C475.418 249.636 473.919 248.631 472.657 247.365C471.395 246.099 470.395 244.596 469.715 242.943C469.035 241.29 468.688 239.519 468.694 237.732C468.427 211.417 457.735 186.282 438.962 167.839C420.19 149.397 394.87 139.152 368.554 139.351C364.952 139.351 361.497 137.92 358.95 135.372C356.402 132.825 354.971 129.37 354.971 125.767C354.971 122.165 356.402 118.71 358.95 116.163C361.497 113.615 364.952 112.184 368.554 112.184C402.105 111.938 434.38 125.025 458.286 148.567C482.191 172.11 495.769 204.181 496.036 237.732C496.042 239.534 495.69 241.32 494.999 242.984C494.308 244.649 493.292 246.16 492.012 247.428C490.731 248.696 489.211 249.697 487.539 250.372C485.868 251.047 484.079 251.382 482.277 251.359Z" fill="#8B4184" fill-opacity="0.1"/>
<path d="M399.458 249.029C396.676 248.06 394.299 246.187 392.705 243.709C391.112 241.231 390.394 238.291 390.666 235.358C390.687 232.752 390.176 230.17 389.163 227.769C388.15 225.368 386.657 223.199 384.776 221.396C382.894 219.593 380.665 218.194 378.223 217.283C375.781 216.373 373.179 215.972 370.577 216.104C367.896 216.062 365.303 215.14 363.198 213.48C361.093 211.82 359.592 209.513 358.927 206.916C358.305 204.897 358.178 202.757 358.556 200.678C358.933 198.598 359.805 196.64 361.098 194.968C362.391 193.296 364.066 191.96 365.984 191.071C367.901 190.182 370.004 189.767 372.115 189.86C398.095 191.926 417.657 213.246 415.723 237.38C415.64 239.306 415.121 241.188 414.203 242.884C413.286 244.579 411.995 246.044 410.427 247.166C408.86 248.289 407.058 249.04 405.157 249.362C403.257 249.685 401.308 249.571 399.458 249.029Z" fill="#8B4184"/>
<path d="M300.022 600C379.567 599.93 455.834 568.297 512.077 512.046C568.32 455.795 599.942 379.523 600 299.978V299.978C599.989 298.725 599.73 297.487 599.24 296.334C598.75 295.181 598.038 294.136 597.144 293.258C596.25 292.381 595.192 291.688 594.03 291.219C592.868 290.75 591.626 290.515 590.373 290.527H318.265V36.9258V9.80296C318.279 7.30483 317.326 4.89822 315.605 3.08725C313.884 1.27629 311.529 0.201475 309.034 0.0879604C306.132 0.0879604 303.231 0.0879604 300.022 0.0879604C260.32 -0.392643 220.917 7.01208 184.098 21.8729C147.279 36.7337 113.776 58.755 85.5307 86.6603C57.2856 114.566 34.8604 147.8 19.555 184.436C4.24959 221.073 -3.63153 260.383 -3.63153 300.088C-3.63153 339.793 4.24959 379.103 19.555 415.74C34.8604 452.376 57.2856 485.61 85.5307 513.516C113.776 541.421 147.279 563.442 184.098 578.303C220.917 593.164 260.32 600.569 300.022 600.088V600ZM561.184 337.036C555.371 378.201 539.819 417.384 515.818 451.33C514.365 453.366 512.179 454.76 509.72 455.219C507.261 455.678 504.72 455.166 502.63 453.792C481.822 440.878 463.808 423.93 449.653 403.946C435.497 383.962 425.485 361.346 420.207 337.431C419.912 336.021 419.936 334.564 420.277 333.164C420.618 331.765 421.267 330.459 422.177 329.343C423.087 328.227 424.235 327.327 425.537 326.711C426.839 326.095 428.262 325.778 429.702 325.782H551.425C552.847 325.75 554.259 326.032 555.56 326.608C556.86 327.184 558.018 328.04 558.95 329.115C559.882 330.189 560.566 331.457 560.952 332.826C561.338 334.195 561.417 335.632 561.184 337.036V337.036ZM327.804 325.958H373.39C375.704 325.974 377.936 326.815 379.684 328.33C381.433 329.845 382.584 331.935 382.929 334.222C387.83 363.576 398.626 391.633 414.666 416.701C430.705 441.769 451.656 463.329 476.255 480.079C477.465 480.898 478.472 481.98 479.202 483.246C479.931 484.511 480.363 485.926 480.465 487.383C480.566 488.84 480.335 490.301 479.788 491.656C479.242 493.01 478.394 494.223 477.31 495.201C436.205 532.731 384.233 556.223 328.903 562.283C327.546 562.427 326.173 562.28 324.876 561.852C323.579 561.425 322.389 560.727 321.382 559.804C320.376 558.881 319.578 557.754 319.041 556.499C318.503 555.244 318.239 553.889 318.265 552.524V335.585C318.265 333.047 319.267 330.612 321.054 328.809C322.84 327.006 325.266 325.981 327.804 325.958V325.958ZM48.4431 325.958H172.496C173.939 325.946 175.366 326.258 176.672 326.871C177.978 327.485 179.13 328.384 180.041 329.502C180.953 330.621 181.602 331.93 181.939 333.333C182.277 334.736 182.295 336.196 181.991 337.607C176.619 361.845 166.395 384.743 151.935 404.923C137.474 425.102 119.078 442.144 97.8534 455.022C95.7905 456.321 93.3101 456.785 90.9172 456.32C88.5243 455.854 86.3988 454.494 84.9733 452.517C60.5627 418.283 44.7603 378.671 38.904 337.036C38.7023 335.664 38.7979 334.265 39.1844 332.933C39.5708 331.602 40.239 330.369 41.1438 329.318C42.0485 328.268 43.1685 327.424 44.4279 326.844C45.6873 326.264 47.0567 325.962 48.4431 325.958V325.958ZM271.185 562.283C216.355 556.299 164.793 533.233 123.789 496.344C122.699 495.363 121.847 494.145 121.299 492.784C120.751 491.423 120.521 489.955 120.627 488.492C120.733 487.029 121.172 485.609 121.911 484.342C122.649 483.074 123.668 481.992 124.888 481.178C149.81 464.461 171.05 442.825 187.303 417.599C203.556 392.372 214.479 364.089 219.401 334.486C219.755 332.202 220.908 330.118 222.654 328.604C224.401 327.091 226.629 326.247 228.94 326.222H272.284C274.841 326.222 277.294 327.235 279.107 329.039C280.919 330.843 281.943 333.291 281.955 335.849V552.788C281.939 554.141 281.639 555.476 281.075 556.706C280.511 557.936 279.695 559.034 278.68 559.929C277.665 560.824 276.473 561.496 275.182 561.901C273.891 562.307 272.529 562.437 271.185 562.283ZM281.955 47.476V280.108C281.943 282.666 280.919 285.114 279.107 286.919C277.294 288.723 274.841 289.736 272.284 289.736H231.182C228.767 289.745 226.437 288.846 224.653 287.217C222.87 285.589 221.764 283.35 221.555 280.944C218.938 248.342 209.065 216.738 192.659 188.444C176.253 160.15 153.729 135.882 126.735 117.415C125.515 116.592 124.5 115.499 123.769 114.222C123.037 112.945 122.608 111.517 122.515 110.048C122.421 108.579 122.666 107.108 123.23 105.749C123.794 104.389 124.662 103.177 125.767 102.205C166.431 66.2585 217.232 43.7913 271.185 37.8929C272.537 37.7383 273.906 37.8707 275.203 38.2814C276.5 38.6921 277.696 39.3719 278.712 40.2763C279.729 41.1808 280.543 42.2896 281.102 43.5302C281.661 44.7709 281.951 46.1154 281.955 47.476ZM99.5678 142.956C123.24 157.673 143.241 177.598 158.05 201.213C172.859 224.828 182.085 251.511 185.025 279.229C185.168 280.57 185.025 281.925 184.604 283.206C184.184 284.487 183.495 285.663 182.584 286.657C181.673 287.651 180.562 288.439 179.322 288.97C178.083 289.501 176.745 289.762 175.397 289.736H46.7287C45.3886 289.729 44.0645 289.444 42.8404 288.898C41.6163 288.353 40.519 287.559 39.6179 286.567C38.7169 285.575 38.0318 284.407 37.6062 283.136C37.1806 281.865 37.0238 280.52 37.1456 279.185C40.9164 230.848 58.0373 184.507 86.5998 145.329C88.0603 143.367 90.2103 142.031 92.6166 141.59C95.0229 141.15 97.5068 141.638 99.5678 142.956V142.956Z" fill="#F5851F" fill-opacity="0.1"/>
</g>
<defs>
<clipPath id="clip0_62_10">
<rect width="600" height="600" fill="white"/>
</clipPath>
</defs>
</svg>
