<svg width="13" height="18" viewBox="0 0 13 18" fill="none" xmlns="http://www.w3.org/2000/svg">
<path d="M8.16825 11.1283L8.15699 11.1366L8.14622 11.1455L7.33045 11.8205C7.32378 11.817 7.31662 11.8132 7.30896 11.8089C7.19508 11.7456 7.04098 11.6269 6.85511 11.4465C6.48705 11.0892 6.06419 10.559 5.67675 9.9738C5.28973 9.38917 4.95379 8.77335 4.74894 8.25264C4.64616 7.99137 4.58289 7.77032 4.55765 7.5988C4.54524 7.5144 4.54407 7.45573 4.54625 7.41733L5.38819 6.71568C5.7424 6.45413 5.88106 6.02858 5.84252 5.64379C5.83924 5.47951 5.83514 5.32405 5.83121 5.17539L5.8312 5.17472C5.81374 4.51312 5.79997 3.9782 5.86872 3.25274C5.92127 2.69829 5.61423 2.04885 4.94919 1.92451L2.77727 1.51843C2.12273 1.39606 1.56098 1.87872 1.46412 2.48907C0.423528 9.04599 4.47142 15.3361 10.5982 16.4816C11.2527 16.6039 11.8145 16.1213 11.9113 15.5109L12.2855 13.1535C12.3789 12.5646 12.0278 11.9432 11.4136 11.8032C10.6645 11.5373 10.1038 11.336 9.33351 11.0328C8.9671 10.8441 8.52158 10.8678 8.16825 11.1283ZM7.40316 11.8508C7.40448 11.851 7.40516 11.8511 7.40517 11.8512L7.40316 11.8508Z" fill="white" stroke="white"/>
</svg>
