<svg width="32" height="29" viewBox="0 0 32 29" fill="none" xmlns="http://www.w3.org/2000/svg">
<path fill-rule="evenodd" clip-rule="evenodd" d="M9.25045 0.807678C4.43928 0.807678 0.654297 4.59266 0.654297 9.40383C0.654297 12.3446 1.91255 15.0299 4.14465 17.8202C6.37225 20.6048 9.59617 23.5263 13.5775 26.9412L13.5929 26.9553L13.9103 27.2442C15.0957 28.3233 16.9065 28.3267 18.096 27.2521L18.4082 26.97L18.4861 26.8993C22.3169 23.4181 25.5239 20.5038 27.7702 17.7504C30.0241 14.9876 31.3466 12.345 31.3466 9.40383C31.3466 4.59266 27.5616 0.807678 22.7505 0.807678C21.0272 0.807678 19.3516 1.31626 17.9244 2.19539C17.5137 2.44839 17.1232 2.73229 16.7578 3.04392C16.4915 3.27106 16.2384 3.51299 16.0005 3.76852C15.7625 3.51299 15.5094 3.27106 15.2431 3.04392C14.8777 2.73229 14.4872 2.44839 14.0765 2.19539C12.6493 1.31626 10.9737 0.807678 9.25045 0.807678ZM2.73122 9.40383C2.73122 5.73971 5.58633 2.8846 9.25045 2.8846C10.5671 2.8846 11.8683 3.27453 12.9872 3.96373C13.6307 4.36017 14.2056 4.85065 14.6827 5.41096L16.0005 6.95838L17.3182 5.41096C17.7953 4.85065 18.3702 4.36017 19.0137 3.96373C20.1326 3.27453 21.4338 2.8846 22.7505 2.8846C26.4146 2.8846 29.2697 5.73971 29.2697 9.40383C29.2697 11.6646 28.2711 13.8509 26.1609 16.4375C24.0308 19.0485 20.9512 21.8528 17.0707 25.3791L17.0144 25.4303L16.7037 25.711C16.3072 26.0692 15.7036 26.0681 15.3085 25.7084L14.9901 25.4185L14.955 25.3865L14.9332 25.3679C10.9401 21.9428 7.85712 19.1362 5.76649 16.5228C3.69504 13.9333 2.73122 11.6959 2.73122 9.40383Z" fill="#894083"/>
</svg>
