<svg width="17" height="12" viewBox="0 0 17 12" fill="none" xmlns="http://www.w3.org/2000/svg">
<path fill-rule="evenodd" clip-rule="evenodd" d="M16.043 0.0295429C15.9655 0.0102434 15.8843 -3.67215e-08 15.8008 -4.00688e-08L1.80078 -6.01032e-07C1.72036 -6.04254e-07 1.64215 0.00949322 1.56722 0.0274213L8.09908 6.55928C8.4896 6.9498 9.12277 6.9498 9.5133 6.55928L16.043 0.0295429ZM0.800782 2.08941L0.800782 11C0.800782 11.5523 1.2485 12 1.80078 12L15.8008 12C16.3531 12 16.8008 11.5523 16.8008 11L16.8008 2.10022L10.9275 7.97349C9.75594 9.14506 7.85644 9.14507 6.68487 7.97349L0.800782 2.08941Z" fill="white"/>
</svg>
