<svg width="27" height="27" viewBox="0 0 27 27" fill="none" xmlns="http://www.w3.org/2000/svg">
<path fill-rule="evenodd" clip-rule="evenodd" d="M10.9231 0.15387C4.97539 0.15387 0.153839 4.97542 0.153839 10.9231C0.153839 16.8708 4.97539 21.6923 10.9231 21.6923C13.5999 21.6923 16.0492 20.7153 17.9328 19.0989L24.8721 26.0381C25.2325 26.3986 25.817 26.3986 26.1775 26.0381C26.538 25.6776 26.538 25.0932 26.1775 24.7327L19.2263 17.7815C20.7665 15.9189 21.6923 13.5288 21.6923 10.9231C21.6923 4.97542 16.8708 0.15387 10.9231 0.15387ZM1.99999 10.9231C1.99999 5.99502 5.99499 2.00002 10.9231 2.00002C15.8511 2.00002 19.8461 5.99502 19.8461 10.9231C19.8461 15.8512 15.8511 19.8462 10.9231 19.8462C5.99499 19.8462 1.99999 15.8512 1.99999 10.9231Z" fill="#894083"/>
</svg>
