<svg width="17" height="16" viewBox="0 0 17 16" fill="none" xmlns="http://www.w3.org/2000/svg">
<path fill-rule="evenodd" clip-rule="evenodd" d="M6.15604 2.13214L5.0657 2.69335L0.800537 14.9276L1.65036 15.4568L4.77708 15.1681L5.65897 12.4744L8.65741 12.2338L9.25069 14.3023L10.1165 14.5749L12.3934 14.3023L8.9781 2.69335L6.15604 2.13214ZM7.11177 5.9805L5.91991 10.3904L8.39632 10.2579L7.11177 5.9805Z" fill="white"/>
<path d="M14.2534 0.240517C13.7403 1.71569 12.5537 2.4693 12.0246 2.66172V4.60195L12.7622 4.71419L13.8525 4.21712C13.8471 5.91143 13.8397 9.33211 13.8525 9.46038C13.8653 9.58866 15.2582 9.63142 15.953 9.63676L16.402 9.30004V0.465062L15.953 0C15.1513 0.0962066 15.0912 0.100215 14.2534 0.240517Z" fill="white"/>
</svg>
